<?xml version="1.0" encoding="UTF-8" standalone="no"?>
<!-- Created with Inkscape (http://www.inkscape.org/) -->

<svg
   version="1.1"
   id="svg1030"
   xml:space="preserve"
   width="880"
   height="880"
   viewBox="0 0 880 880"
   sodipodi:docname="knot.svg"
   inkscape:version="1.1 (c68e22c387, 2021-05-23)"
   xmlns:inkscape="http://www.inkscape.org/namespaces/inkscape"
   xmlns:sodipodi="http://sodipodi.sourceforge.net/DTD/sodipodi-0.dtd"
   xmlns="http://www.w3.org/2000/svg"
   xmlns:svg="http://www.w3.org/2000/svg"
   xmlns:rdf="http://www.w3.org/1999/02/22-rdf-syntax-ns#"
   xmlns:cc="http://creativecommons.org/ns#"
   xmlns:dc="http://purl.org/dc/elements/1.1/"><metadata
     id="metadata1036"><rdf:RDF><cc:Work
         rdf:about=""><dc:format>image/svg+xml</dc:format><dc:type
           rdf:resource="http://purl.org/dc/dcmitype/StillImage" /></cc:Work></rdf:RDF></metadata><defs
     id="defs1034"><clipPath
       clipPathUnits="userSpaceOnUse"
       id="clipPath1046"><path
         d="M 0,660 H 660 V 0 H 0 Z"
         id="path1044"
         inkscape:connector-curvature="0" /></clipPath></defs><sodipodi:namedview
     pagecolor="#ffffff"
     bordercolor="#666666"
     borderopacity="1"
     objecttolerance="10"
     gridtolerance="10"
     guidetolerance="10"
     inkscape:pageopacity="0"
     inkscape:pageshadow="2"
     inkscape:window-width="1720"
     inkscape:window-height="1392"
     id="namedview1032"
     showgrid="false"
     inkscape:zoom="0.21082071"
     inkscape:cx="2132.1435"
     inkscape:cy="1404.0366"
     inkscape:window-x="2800"
     inkscape:window-y="0"
     inkscape:window-maximized="0"
     inkscape:current-layer="g1038"
     inkscape:pagecheckerboard="1" /><g
     id="g1038"
     inkscape:groupmode="layer"
     inkscape:label="rope-silhouette-clipart-freesvg.org"
     transform="matrix(1.3333333,0,0,-1.3333333,0,880)"><path
       d="m 609.265,458.997 c -3.379,5.151 -11.773,14.418 -19.816,19.642 0.811,-0.035 1.621,-0.088 2.431,-0.158 3.116,-0.273 6.224,-0.8 9.26,-1.621 3.033,-0.825 5.997,-1.955 8.756,-3.493 2.751,-1.538 5.309,-3.509 7.309,-6.018 -1.765,2.68 -4.178,4.926 -6.852,6.754 -2.683,1.829 -5.629,3.27 -8.682,4.404 -3.058,1.13 -6.225,1.967 -9.446,2.547 -2,0.356 -4.025,0.602 -6.066,0.745 7.94,0.616 25.248,-1.478 38.976,-14.257 5.296,-4.932 7.598,-9.455 10.033,-14.242 1.975,-3.882 4.016,-7.886 7.69,-12.404 -5.363,1.627 -10.5,4.269 -15.17,7.594 -2.511,1.792 -4.887,3.795 -7.076,5.993 -2.173,2.211 -4.181,4.618 -5.699,7.359 1.259,-2.871 3.064,-5.497 5.057,-7.938 2.012,-2.434 4.241,-4.697 6.645,-6.773 2.616,-2.248 5.437,-4.289 8.441,-6.061 -12.994,2.586 -22.718,13.241 -25.791,17.927 m -25.148,-4.593 c -0.713,0.812 -1.417,1.622 -2.113,2.426 -0.3,0.346 -0.598,0.69 -0.896,1.033 -1.737,2.301 -4.538,5.363 -7.88,8.496 -1.704,1.642 -3.524,3.248 -5.54,4.814 -2.878,2.309 -5.914,4.453 -8.879,6.121 0.862,0.017 1.724,0.017 2.587,-0.002 3.326,-0.08 6.658,-0.429 9.934,-1.093 3.274,-0.671 6.495,-1.669 9.526,-3.114 3.024,-1.444 5.87,-3.362 8.163,-5.889 -2.055,2.723 -4.767,4.943 -7.728,6.701 -2.97,1.758 -6.193,3.087 -9.51,4.085 -3.319,0.991 -6.735,1.665 -10.191,2.061 -2.147,0.244 -4.311,0.367 -6.486,0.381 7.996,1.135 25.199,0.223 40.158,-10.822 4.827,-4.449 9.098,-9.436 11.109,-12.502 0.594,-0.904 1.415,-2.012 2.445,-3.239 0.07,-0.118 0.14,-0.235 0.209,-0.354 2.358,-3.984 4.794,-8.094 9,-12.639 -5.801,1.363 -11.429,3.819 -16.609,7.03 -2.785,1.731 -5.44,3.695 -7.912,5.88 -2.455,2.198 -4.749,4.615 -6.545,7.421 1.529,-2.961 3.622,-5.625 5.902,-8.08 2.3,-2.445 4.819,-4.696 7.509,-6.734 2.926,-2.207 6.055,-4.181 9.36,-5.858 -11.2,1.499 -20.521,8.648 -25.613,13.877 m -36.669,2.837 c -1.209,1.085 -2.384,2.176 -3.569,3.281 -3.135,2.918 -6.377,5.935 -10.553,9.025 -4.16,3.374 -8.61,6.507 -12.738,8.222 4.186,0.038 8.396,-0.226 12.548,-0.904 2.477,-0.412 4.94,-0.964 7.321,-1.776 2.364,-0.815 4.724,-1.881 6.482,-3.738 -1.603,1.998 -3.927,3.292 -6.258,4.31 -2.354,1.021 -4.812,1.782 -7.3,2.405 -3.446,0.852 -6.958,1.418 -10.503,1.764 9.19,1.243 25.631,0.431 40.274,-9.875 6.705,-4.719 11.255,-9.972 16.072,-15.534 2.626,-3.03 5.32,-6.135 8.445,-9.248 -1.722,0.261 -3.44,0.612 -5.143,1.035 -3.453,0.864 -6.851,2.03 -10.134,3.477 -3.281,1.449 -6.457,3.177 -9.386,5.274 -2.91,2.104 -5.633,4.578 -7.532,7.7 1.628,-3.274 4.182,-6.033 6.964,-8.422 2.803,-2.39 5.899,-4.429 9.139,-6.202 3.245,-1.769 6.647,-3.268 10.17,-4.473 1.95,-0.663 3.94,-1.234 5.967,-1.691 -15.89,-1.756 -32.868,9.645 -40.266,15.37 m -31.335,-1.658 c -0.911,0.717 -2.319,1.951 -4.1,3.512 -1.935,1.694 -4.205,3.684 -6.652,5.728 -1.971,1.914 -4.211,3.91 -7.131,6.065 -2.574,1.899 -5.267,3.468 -8.022,4.759 -1.06,0.566 -2.093,1.06 -3.097,1.469 2.006,0.095 4.041,0.022 6.068,-0.189 3.785,-0.396 7.557,-1.243 11.246,-2.392 3.69,-1.154 7.304,-2.61 10.789,-4.347 3.473,-1.75 6.856,-3.737 9.867,-6.248 -2.807,2.741 -6.058,5.015 -9.425,7.055 -3.381,2.028 -6.928,3.795 -10.611,5.272 -3.35,1.337 -6.816,2.435 -10.395,3.175 9.381,-0.098 22.911,-2.863 36.303,-12.712 4.1,-3.015 7.313,-6.006 10.417,-8.899 5.043,-4.696 10.242,-9.533 19.154,-14.341 -1.934,0.137 -3.894,0.405 -5.828,0.741 -3.689,0.657 -7.352,1.601 -10.945,2.771 -3.589,1.179 -7.125,2.577 -10.492,4.319 -3.36,1.743 -6.61,3.783 -9.357,6.451 2.526,-2.881 5.645,-5.214 8.903,-7.252 3.271,-2.039 6.743,-3.745 10.301,-5.24 3.567,-1.488 7.232,-2.755 10.999,-3.743 0.519,-0.132 1.04,-0.26 1.561,-0.383 -15.388,-1.52 -35.193,11.001 -39.553,14.429 m 9.034,-21.564 c -0.431,-4.811 -2.6,-11.766 -10.489,-17.572 -17.865,-13.151 -35.748,-10.461 -49.565,-7.409 3.661,2.319 7.57,4.271 11.694,5.719 5.646,1.995 11.682,3.021 17.775,2.996 -6.057,0.638 -12.277,0.234 -18.296,-1.232 -4.989,-1.204 -9.818,-3.125 -14.377,-5.567 5.406,5.687 12.811,8.215 20.091,9.983 3.265,0.373 7.68,1.324 12.164,2.808 1.46,0.391 2.855,0.815 4.157,1.306 3.099,1.169 6.074,2.797 8.852,4.621 3.829,2.306 7.66,5.222 11.048,8.899 1.662,1.572 3.088,3.007 4.235,4.173 0.164,0.026 0.327,0.051 0.484,0.076 -1.024,-2.999 -2.16,-5.958 -3.507,-8.815 -1.538,-3.258 -3.35,-6.391 -5.583,-9.212 -2.226,-2.822 -4.889,-5.312 -7.937,-7.286 -3.043,-1.983 -6.448,-3.44 -9.987,-4.454 3.61,0.717 7.163,1.891 10.455,3.662 3.293,1.762 6.291,4.121 8.863,6.878 2.58,2.754 4.747,5.872 6.628,9.124 1.173,2.031 2.231,4.118 3.222,6.236 0.176,-1.464 0.236,-3.126 0.073,-4.934 m -47.843,-48.552 h -0.099 c -0.563,0 -1.111,0.017 -1.66,0.033 -4.912,0.699 -10.679,2.074 -17.218,4.112 -6.013,1.874 -11.119,5.206 -15.668,8.998 -1.041,1.056 -1.937,2.081 -2.706,3.04 1.491,0.077 2.98,0.143 4.473,0.188 2.802,0.091 5.605,0.12 8.405,0.055 2.799,-0.066 5.599,-0.215 8.383,-0.534 2.776,-0.341 5.557,-0.823 8.189,-1.852 -2.507,1.311 -5.27,2.11 -8.031,2.759 -2.773,0.628 -5.582,1.087 -8.4,1.461 -2.819,0.374 -5.649,0.653 -8.482,0.87 -2.312,0.181 -4.636,0.311 -6.942,0.431 -0.137,0.22 -0.267,0.431 -0.381,0.624 10.117,3.026 23.082,0.466 33.629,-1.615 6.89,-1.361 12.84,-2.537 17.173,-2.122 6.108,0.584 12.615,2.321 17.671,4.081 -0.798,-0.783 -1.609,-1.547 -2.45,-2.281 -3.063,-2.666 -6.471,-4.927 -10.208,-6.553 -3.73,-1.636 -7.76,-2.611 -11.874,-3.021 -4.125,-0.359 -8.295,-0.116 -12.441,0.388 4.094,-0.805 8.265,-1.364 12.492,-1.306 4.215,0.108 8.459,0.8 12.496,2.227 4.041,1.413 7.839,3.548 11.269,6.117 1.532,1.153 2.994,2.387 4.411,3.655 -3.877,-7.626 -13.425,-19.755 -32.031,-19.755 m -31.356,-11.761 c -16.669,4.982 -23.367,23.444 -27.798,35.66 -0.948,2.613 -1.767,4.87 -2.577,6.707 -0.027,0.064 -0.1,0.232 0.071,0.41 0.126,0.133 0.278,0.164 0.453,0.096 4.734,-1.846 9.211,-6.344 14.393,-11.55 7.165,-7.198 15.285,-15.358 26.742,-18.929 8.773,-2.733 16.258,-4.32 22.247,-4.718 0.078,-0.005 0.279,-0.018 0.347,-0.286 0.043,-0.165 -0.006,-0.27 -0.064,-0.339 -3.511,-1.194 -7.138,-2.092 -10.824,-2.646 -3.807,-0.569 -7.681,-0.778 -11.537,-0.524 -3.852,0.256 -7.695,0.979 -11.347,2.318 -3.649,1.334 -7.101,3.305 -10.049,5.927 2.733,-2.842 6.07,-5.122 9.698,-6.776 3.629,-1.663 7.535,-2.722 11.504,-3.297 3.972,-0.576 8.012,-0.673 12.025,-0.39 -6.716,-2.578 -14.983,-4.145 -23.284,-1.663 m -49.783,41.489 c -1.151,6.314 -2.337,12.812 -4.257,18.779 0.397,-0.331 0.788,-0.671 1.19,-0.998 0.612,-0.556 1.206,-1.138 1.812,-1.706 2.36,-2.354 4.509,-4.947 6.469,-7.675 1.955,-2.732 3.725,-5.609 5.222,-8.63 1.487,-3.022 2.728,-6.196 3.363,-9.535 -0.433,3.372 -1.488,6.648 -2.806,9.788 -1.327,3.143 -2.942,6.165 -4.762,9.062 -1.827,2.894 -3.856,5.67 -6.149,8.253 -0.593,0.628 -1.174,1.27 -1.78,1.89 -0.218,0.202 -0.429,0.409 -0.642,0.615 7.427,-4.775 17.484,-15.908 20.426,-26.715 1.846,-6.777 5.111,-15.031 10.869,-22.675 2.732,-4.068 6.039,-7.801 10.13,-10.727 -2.268,0.697 -4.505,1.599 -6.682,2.625 -3.496,1.658 -6.871,3.637 -10.047,5.908 -3.171,2.273 -6.178,4.813 -8.81,7.713 -1.311,1.452 -2.526,2.998 -3.55,4.67 -1.028,1.665 -1.833,3.492 -2.175,5.445 0.189,-1.974 0.86,-3.897 1.774,-5.669 0.908,-1.78 2.023,-3.452 3.245,-5.036 2.454,-3.165 5.321,-5.995 8.391,-8.577 3.074,-2.58 6.386,-4.889 9.898,-6.901 0.689,-0.392 1.389,-0.768 2.095,-1.135 -26.073,2.013 -29.563,21.134 -33.224,41.231 M 374.43,428.25 c -0.631,6.951 -1.276,14.048 -3.35,20.969 l -6.631,12.125 c 0.61,-0.346 1.215,-0.762 1.792,-1.218 1.216,-0.961 2.362,-2.084 3.43,-3.291 2.128,-2.43 3.977,-5.168 5.566,-8.056 1.582,-2.895 2.937,-5.937 3.999,-9.091 1.077,-3.15 1.869,-6.409 2.375,-9.726 -0.201,3.349 -0.694,6.695 -1.492,9.982 -0.782,3.291 -1.875,6.516 -3.231,9.646 -1.335,3.057 -2.949,6.015 -4.931,8.782 6.964,-4.92 12.356,-13.663 15.158,-21.847 0.016,-0.047 0.033,-0.095 0.05,-0.144 1.194,-3.523 1.907,-6.937 2.058,-9.887 1.037,-20.518 7.285,-34.284 10.48,-40.851 -2.144,1.48 -4.142,3.227 -5.965,5.155 -2.82,2.986 -5.242,6.393 -7.285,10.026 -4.076,7.282 -6.691,15.45 -7.742,23.857 0.443,-8.461 2.46,-16.906 6.107,-24.699 1.555,-3.303 3.418,-6.486 5.634,-9.445 -13.511,10.139 -14.745,23.612 -16.022,37.713 m -23.745,12.808 c -1.024,6.69 -2.069,13.516 -4.435,20.25 0.02,0.137 0.031,0.269 0.031,0.395 2.375,0.413 4.635,0.954 6.77,1.578 0.72,-0.829 1.401,-1.725 2.041,-2.667 0.596,-0.913 1.15,-1.869 1.684,-2.843 0.243,-0.439 0.49,-0.876 0.718,-1.326 0.722,-1.452 1.387,-2.944 1.994,-4.467 0.602,-1.524 1.158,-3.074 1.629,-4.656 -0.169,1.643 -0.431,3.281 -0.746,4.914 -0.32,1.633 -0.705,3.258 -1.163,4.876 -0.472,1.614 -1.026,3.217 -1.684,4.804 -0.356,0.818 -0.746,1.63 -1.175,2.434 0.602,0.214 1.198,0.432 1.774,0.658 5.514,-6.714 9.397,-15.627 10.136,-24.811 1.231,-15.305 4.03,-26.523 5.704,-33.227 0.303,-1.219 0.611,-2.453 0.859,-3.533 -1.667,1.395 -3.209,3 -4.613,4.72 -2.301,2.827 -4.262,5.979 -5.886,9.303 -1.622,3.327 -2.911,6.839 -3.789,10.467 -0.874,3.626 -1.335,7.38 -1.163,11.147 -0.477,-3.741 -0.328,-7.57 0.261,-11.324 0.591,-3.758 1.614,-7.458 3.005,-11.026 1.398,-3.567 3.162,-7.014 5.363,-10.22 0.314,-0.455 0.641,-0.904 0.974,-1.35 -14.169,9.042 -16.106,21.629 -18.289,35.904 M 334.009,394.84 c -7.279,1.252 -17.293,4.071 -26.138,7.361 -9.732,3.618 -13.703,6.179 -14.952,7.363 17.645,9.158 32.598,5.81 48.409,2.271 4.248,-0.95 8.571,-1.916 12.992,-2.634 2.207,-0.782 4.457,-1.653 6.737,-2.626 0.316,-0.291 0.646,-0.578 0.979,-0.865 -3.309,-1.679 -6.89,-2.912 -10.574,-3.754 -4.603,-1.056 -9.375,-1.489 -14.149,-1.474 -4.776,0.027 -9.573,0.527 -14.264,1.565 -2.344,0.521 -4.66,1.186 -6.908,2.044 -1.131,0.416 -2.224,0.923 -3.304,1.456 -1.064,0.564 -2.104,1.182 -3.068,1.914 0.916,-0.792 1.92,-1.479 2.956,-2.115 1.053,-0.605 2.124,-1.188 3.238,-1.679 2.215,-1.01 4.516,-1.832 6.858,-2.51 4.688,-1.353 9.533,-2.175 14.423,-2.512 4.89,-0.327 9.842,-0.197 14.741,0.602 4.279,0.698 8.531,1.885 12.548,3.74 -6.851,-10.368 -21.726,-9.657 -30.524,-8.147 m -26.013,-16.251 c -6.765,1.353 -16.382,5.807 -25.726,11.917 -7.131,4.663 -11.481,8.595 -13.251,10.846 0.738,-0.111 1.469,-0.205 2.196,-0.288 1.723,-0.192 3.424,-0.342 5.119,-0.494 3.387,-0.306 6.749,-0.631 10.078,-1.167 3.326,-0.534 6.624,-1.263 9.822,-2.334 3.195,-1.072 6.295,-2.493 9.12,-4.406 -2.64,2.159 -5.641,3.882 -8.788,5.263 -3.15,1.382 -6.448,2.43 -9.783,3.279 -3.337,0.85 -6.719,1.487 -10.077,2.098 -0.61,0.111 -1.217,0.222 -1.825,0.335 10.465,1.243 19.593,-1.644 29.147,-4.671 4.311,-1.365 8.678,-2.747 13.23,-3.759 6.03,-1.818 11.857,-3.258 16.129,-3.992 1.59,-0.274 3.363,-0.518 5.246,-0.688 -2.049,-0.635 -4.107,-1.228 -6.18,-1.75 -4.307,-1.085 -8.691,-1.841 -13.12,-2.025 -4.425,-0.189 -8.888,0.221 -13.235,1.255 -4.35,1.026 -8.57,2.651 -12.61,4.655 3.893,-2.271 8.018,-4.199 12.368,-5.542 4.344,-1.351 8.905,-2.092 13.492,-2.206 4.589,-0.124 9.185,0.352 13.684,1.166 2.19,0.395 4.359,0.863 6.515,1.375 -7.951,-7.763 -21.095,-10.958 -31.551,-8.867 m -31.144,-8.868 c -0.39,0.249 -0.861,0.475 -1.445,0.656 -3.033,0.939 -5.753,2.107 -8.216,3.455 -7.649,5.388 -15.268,15.555 -19.812,24.726 -1.423,2.871 -2.189,4.971 -2.581,6.426 0.024,0.011 0.054,0.02 0.091,0.031 0.143,0.039 0.366,0.052 0.608,0.035 0.49,-0.031 1.057,-0.174 1.613,-0.349 1.124,-0.364 2.255,-0.883 3.36,-1.45 2.214,-1.145 4.355,-2.503 6.434,-3.944 2.077,-1.448 4.095,-2.995 6.026,-4.645 1.917,-1.662 3.801,-3.391 5.349,-5.422 -1.383,2.153 -3.139,4.046 -4.932,5.871 -1.81,1.817 -3.717,3.537 -5.703,5.172 -1.99,1.631 -4.049,3.185 -6.267,4.568 -0.935,0.577 -1.898,1.123 -2.932,1.597 5.78,-1.386 11.278,-5.382 17.423,-9.851 5.045,-3.669 10.383,-7.548 16.498,-10.464 7.122,-4.44 15.185,-8.454 21.843,-10.388 -1.996,-0.327 -4.021,-0.541 -6.055,-0.639 -3.803,-0.18 -7.642,0.032 -11.419,0.686 -3.774,0.656 -7.49,1.76 -10.98,3.41 -3.487,1.645 -6.742,3.855 -9.498,6.63 2.528,-2.982 5.641,-5.484 9.072,-7.445 3.431,-1.966 7.167,-3.407 11.019,-4.392 3.853,-0.985 7.829,-1.523 11.827,-1.647 1.392,-0.043 2.787,-0.032 4.184,0.027 -7.921,-3.879 -17.454,-4.353 -25.507,-2.654 m -41.774,5.699 c -7.135,6.925 -10.609,23.837 -10.354,36.962 0.054,2.788 0.281,4.825 0.552,6.278 0.88,-0.858 1.697,-1.87 2.43,-2.944 1.284,-1.883 2.391,-3.954 3.374,-6.091 0.987,-2.139 1.863,-4.347 2.675,-6.585 0.827,-2.233 1.535,-4.518 2.372,-6.76 -0.542,2.324 -0.951,4.679 -1.488,7.018 -0.524,2.341 -1.118,4.674 -1.843,6.987 -0.724,2.314 -1.586,4.607 -2.716,6.838 -0.359,0.704 -0.755,1.398 -1.189,2.081 4.729,-3.952 7.88,-10.403 11.408,-17.652 6.056,-12.445 12.871,-26.435 30.158,-33.323 -2.224,0.044 -4.47,0.314 -6.68,0.773 -4.238,0.882 -8.37,2.447 -12.23,4.525 -3.857,2.086 -7.464,4.702 -10.538,7.878 -3.055,3.169 -5.608,6.947 -6.863,11.258 0.954,-4.388 3.275,-8.42 6.18,-11.874 2.921,-3.465 6.445,-6.413 10.291,-8.849 3.855,-2.429 8.053,-4.366 12.501,-5.616 2.364,-0.66 4.809,-1.128 7.295,-1.339 -12.802,-3.928 -26.933,2.278 -35.335,10.435 m -31.249,20.622 c -2.842,9.527 2.386,25.98 9.019,37.31 1.233,2.104 2.298,3.641 3.181,4.754 0.222,-1.331 0.422,-2.669 0.589,-4.014 0.032,-0.256 0.058,-0.514 0.088,-0.771 0.349,-2.976 0.59,-5.976 0.733,-8.985 0.154,-3.269 0.198,-6.549 0.107,-9.828 -0.099,-3.279 -0.313,-6.56 -0.84,-9.812 0.828,3.19 1.351,6.463 1.757,9.743 0.399,3.283 0.662,6.586 0.816,9.898 0.15,3.312 0.191,6.635 0.09,9.969 -0.047,1.526 -0.13,3.055 -0.248,4.587 2.934,-5.83 2.66,-13.184 2.262,-21.527 -0.251,-2.19 -0.359,-4.808 -0.3,-7.691 -0.192,-9.181 0.53,-18.908 5.734,-28.5 l 0.207,-0.279 7.134,-9.625 0.06,-0.081 c -2.614,0.975 -5.144,2.252 -7.524,3.776 -3.129,2.005 -6.009,4.444 -8.467,7.272 -2.455,2.827 -4.484,6.061 -5.826,9.599 -1.348,3.533 -1.977,7.37 -1.797,11.211 -0.485,-3.812 -0.172,-7.756 0.925,-11.501 1.088,-3.752 2.925,-7.29 5.261,-10.456 2.338,-3.171 5.165,-5.985 8.322,-8.385 1.469,-1.114 3.012,-2.136 4.618,-3.061 -13.175,2.758 -22.54,15.127 -25.901,26.397 m -14.291,38.765 c 5.158,15.231 20.696,26.943 29.279,30.749 0.862,0.382 1.597,0.659 2.236,0.87 -1.897,-3.834 -3.97,-7.62 -6.123,-11.348 -1.386,-2.39 -2.814,-4.759 -4.304,-7.089 -1.497,-2.326 -3.036,-4.627 -4.769,-6.793 1.963,1.962 3.76,4.095 5.514,6.255 1.75,2.165 3.441,4.376 5.097,6.617 2.495,3.394 4.919,6.835 7.215,10.397 -0.476,-6.44 -4.33,-12.694 -8.694,-19.763 -3.128,-5.069 -6.427,-10.419 -8.847,-16.39 -2.811,-6.114 -5.252,-13.267 -6.266,-19.999 l 0.204,-6.432 c -1.238,2.26 -2.324,4.623 -3.237,7.056 -1.307,3.501 -2.284,7.143 -2.815,10.858 -0.523,3.709 -0.606,7.512 0.072,11.219 0.671,3.692 2.18,7.306 4.734,10.182 -2.776,-2.658 -4.636,-6.226 -5.631,-9.978 -1.006,-3.767 -1.239,-7.715 -1.004,-11.608 0.241,-3.899 0.951,-7.765 2.023,-11.534 0.507,-1.768 1.097,-3.514 1.769,-5.235 -7.267,8.55 -10.108,21.175 -6.453,31.966 m -34.019,0.381 c -3.386,3.77 -5.918,7.334 -8.366,10.781 -3.181,4.476 -6.447,9.062 -11.561,14.034 l -4.344,2.557 c 4.621,-1.001 9.159,-2.325 13.461,-4.267 2.934,-1.331 5.746,-2.961 8.267,-4.998 2.521,-2.029 4.735,-4.482 6.428,-7.304 v 0 c -1.421,2.966 -3.428,5.669 -5.817,7.992 -2.388,2.328 -5.135,4.288 -8.039,5.947 -5.03,2.864 -10.487,4.867 -16.012,6.475 0.744,0.299 1.682,0.547 2.703,0.573 0.176,0.004 0.35,0.006 0.526,0.006 16.367,0 35.892,-18.871 39.455,-23.77 0.411,-0.565 0.931,-1.304 1.543,-2.174 2.468,-3.509 6.286,-8.935 10.586,-13.89 -0.143,-2.407 -0.04,-4.831 0.287,-7.227 -0.398,0.137 -0.797,0.281 -1.194,0.431 -1.488,0.563 -2.959,1.212 -4.398,1.927 -2.739,1.364 -5.379,2.969 -7.865,4.796 -2.485,1.828 -4.808,3.896 -6.852,6.228 -2.035,2.331 -3.799,4.949 -4.923,7.891 v -0.001 c 0.832,-3.037 2.357,-5.877 4.202,-8.461 1.855,-2.586 4.033,-4.945 6.409,-7.081 2.041,-1.832 4.229,-3.503 6.531,-5.024 -6.989,2.788 -14.553,7.35 -21.027,14.559 m -33.944,8.22 c -3.386,3.77 -5.918,7.335 -8.366,10.78 -4.067,5.726 -8.267,11.626 -16.308,18.288 0.077,-0.016 0.155,-0.027 0.231,-0.042 4.777,-0.991 9.461,-2.608 13.868,-4.823 2.918,-1.471 5.714,-3.214 8.293,-5.256 2.578,-2.042 4.942,-4.387 6.921,-7.063 -1.722,2.847 -3.887,5.438 -6.316,7.756 -2.432,2.32 -5.128,4.37 -7.993,6.164 -3.997,2.493 -8.316,4.495 -12.836,5.976 15.917,-0.226 35.275,-19.102 39.288,-23.857 0.824,-0.975 2.061,-2.674 3.495,-4.64 2.002,-2.748 4.374,-6 6.949,-9.181 1.207,-1.554 2.511,-3.142 3.982,-4.78 1.366,-1.521 2.78,-2.93 4.223,-4.24 l 1.673,-1.119 c -2.178,0.602 -4.331,1.275 -6.446,2.059 -3.72,1.378 -7.324,3.081 -10.728,5.152 -3.405,2.066 -6.605,4.499 -9.554,7.226 -2.954,2.724 -5.658,5.734 -8.152,8.921 2.244,-3.365 4.725,-6.591 7.503,-9.574 2.774,-2.983 5.847,-5.716 9.188,-8.107 3.338,-2.396 6.938,-4.445 10.686,-6.165 1.019,-0.469 2.049,-0.91 3.087,-1.333 -9.12,1.532 -22.305,6.297 -32.688,17.858 m -26.847,-1.617 c -4.983,5.077 -9.916,12.99 -13.215,18.285 -1.378,2.213 -2.467,3.96 -3.294,5.097 -1.446,1.99 -3.194,4.251 -5.202,6.603 -0.809,1.351 -1.656,2.714 -2.564,4.09 l -1.562,1.151 c 0.186,-0.037 0.371,-0.074 0.557,-0.12 l 1.28,-0.376 c 1.712,-0.507 3.402,-1.203 5.068,-1.957 3.327,-1.537 6.527,-3.43 9.578,-5.544 3.047,-2.12 5.951,-4.472 8.631,-7.07 2.671,-2.601 5.14,-5.452 7.096,-8.67 -1.687,3.368 -3.939,6.449 -6.428,9.302 -2.497,2.851 -5.251,5.483 -8.19,7.904 -2.943,2.418 -6.069,4.634 -9.43,6.534 -1.216,0.673 -2.454,1.32 -3.74,1.897 15.059,-2.599 28.365,-16.267 34.108,-22.985 0.949,-1.286 1.865,-2.572 2.789,-3.873 2.467,-3.472 5.02,-7.061 8.458,-10.913 2.413,-2.949 4.994,-5.808 7.613,-8.12 l 5.387,-2.844 c -2.621,0.264 -5.26,0.863 -7.839,1.664 -3.824,1.192 -7.548,2.826 -11.146,4.716 -3.6,1.89 -7.089,4.029 -10.439,6.375 -1.675,1.175 -3.318,2.399 -4.911,3.687 -1.589,1.291 -3.147,2.63 -4.578,4.105 1.318,-1.579 2.778,-3.037 4.276,-4.451 1.502,-1.412 3.059,-2.765 4.658,-4.073 3.196,-2.614 6.556,-5.039 10.079,-7.239 3.355,-2.093 6.868,-3.973 10.582,-5.49 -7.838,1.269 -18.293,4.718 -27.622,12.315 M 56.235,455.65 c -5.164,6.368 -8.111,12.662 -11.232,19.326 -1.746,3.73 -3.545,7.555 -5.785,11.513 l -0.379,0.303 c 2.008,-0.711 3.989,-1.569 5.922,-2.525 3.294,-1.637 6.468,-3.565 9.481,-5.731 3.011,-2.166 5.867,-4.576 8.447,-7.266 2.577,-2.689 4.909,-5.652 6.673,-8.978 -1.487,3.46 -3.595,6.649 -5.984,9.588 -2.396,2.942 -5.101,5.635 -8.001,8.103 -2.9,2.467 -5.999,4.718 -9.289,6.703 -1.421,0.852 -2.88,1.655 -4.38,2.395 15.543,-3.408 28.415,-19.023 33.535,-26.07 0.75,-1.031 1.861,-2.816 3.148,-4.881 3.892,-6.244 9.33,-14.97 15.086,-20.247 l 3.399,-2.16 c -2.55,0.398 -5.104,1.102 -7.594,1.991 -3.654,1.318 -7.204,3.03 -10.588,5.036 -3.381,2.013 -6.612,4.307 -9.608,6.892 -2.982,2.592 -5.76,5.469 -7.964,8.799 1.941,-3.49 4.519,-6.615 7.336,-9.47 2.832,-2.852 5.936,-5.438 9.237,-7.766 2.284,-1.602 4.676,-3.063 7.161,-4.375 -8.871,2.625 -20.004,8.198 -28.621,18.82 m 121.128,1.442 c -0.363,-1.622 -0.618,-3.23 -0.77,-4.82 -0.379,0.377 -0.773,0.74 -1.189,1.073 -1.143,0.921 -2.387,1.713 -3.672,2.426 -1.015,0.562 -2.063,1.062 -3.126,1.532 2.879,0.334 5.821,0.221 8.757,-0.211 m -0.779,-11.494 c -2.861,3.106 -5.818,6.27 -9.134,9.34 1.197,-0.231 2.39,-0.508 3.564,-0.859 1.33,-0.401 2.64,-0.882 3.889,-1.504 0.563,-0.282 1.112,-0.6 1.635,-0.958 -0.16,-2.044 -0.143,-4.054 0.046,-6.019 m 14.418,29.702 c 6.72,7.327 23.526,11.281 36.654,11.399 0.184,0.002 0.366,0.002 0.545,0.002 2.986,0 5.071,-0.228 6.465,-0.502 -3.773,-1.889 -7.307,-4.077 -10.853,-6.138 -2.299,-1.337 -4.618,-2.623 -7.009,-3.78 -2.388,-1.158 -4.849,-2.184 -7.377,-3.053 2.61,0.573 5.192,1.316 7.729,2.204 2.538,0.885 5.03,1.914 7.488,2.988 3.339,1.461 6.629,2.985 9.949,4.271 -3.743,-4.806 -9.876,-8.096 -16.763,-11.777 -9.867,-5.276 -20.754,-11.101 -27.787,-22.957 l -4.499,-11.728 c -0.036,0.167 -0.073,0.335 -0.105,0.505 -0.177,0.898 -0.239,1.865 -0.294,2.826 -0.08,1.937 0.033,3.925 0.248,5.904 0.439,3.964 1.32,7.916 2.559,11.751 1.237,3.836 2.855,7.571 4.983,11.015 2.126,3.423 4.788,6.624 8.269,8.813 -3.64,-1.921 -6.603,-4.969 -9.033,-8.299 -2.435,-3.352 -4.379,-7.052 -5.946,-10.896 -1.569,-3.848 -2.786,-7.848 -3.56,-11.977 -0.382,-2.066 -0.664,-4.163 -0.739,-6.317 -0.005,-0.269 -0.009,-0.537 -0.011,-0.806 -4.912,12.912 0.976,27.708 9.087,36.552 m 22.19,31.445 c 2.265,0.815 4.959,1.179 7.912,1.179 9.241,0 20.989,-3.577 29.84,-8.123 4.554,-2.338 6.592,-4.092 7.334,-4.979 l -0.089,-0.022 -0.689,-0.106 c -0.468,-0.065 -0.969,-0.104 -1.466,-0.142 -1.005,-0.062 -2.031,-0.096 -3.066,-0.098 -2.069,-0.014 -4.159,0.047 -6.251,0.136 -4.185,0.185 -8.38,0.493 -12.571,0.854 4.095,-0.966 8.206,-1.882 12.357,-2.681 1.789,-0.341 3.589,-0.653 5.406,-0.925 -4.911,-1.351 -10.678,-1.398 -17.001,-1.446 -1.677,-0.013 -3.381,-0.027 -5.104,-0.064 -10.36,0.269 -26.906,-2.245 -36.894,-8.723 3.28,4.159 7.013,7.961 11.315,11.085 3.088,2.235 6.462,4.102 10.062,5.449 3.596,1.351 7.412,2.174 11.291,2.44 -3.886,0.039 -7.803,-0.479 -11.579,-1.567 -3.781,-1.083 -7.413,-2.728 -10.792,-4.79 -3.382,-2.064 -6.514,-4.536 -9.397,-7.262 -1.806,-1.707 -3.505,-3.522 -5.125,-5.406 2.89,12.245 14.04,21.427 24.507,25.191 m -4.487,2.33 c -0.091,0.116 -0.252,0.375 -0.214,0.704 5.904,3.211 12,6.079 18.5,7.684 3.362,0.826 6.822,1.296 10.311,1.267 3.486,-0.025 6.985,-0.544 10.379,-1.511 -3.295,1.258 -6.777,2.094 -10.332,2.428 -3.556,0.341 -7.168,0.171 -10.716,-0.38 -3.551,-0.551 -7.038,-1.475 -10.438,-2.611 -1.216,-0.407 -2.418,-0.849 -3.614,-1.304 8.679,8.906 22.76,11.171 33.59,9.181 9.78,-1.797 22.063,-13.929 29.143,-24.984 1.26,-1.968 2.125,-3.564 2.715,-4.829 -1.143,0.479 -2.284,0.975 -3.417,1.48 -2.362,1.056 -4.705,2.163 -7.02,3.327 -2.314,1.166 -4.599,2.389 -6.82,3.723 -1.106,0.669 -2.198,1.368 -3.238,2.135 -1.025,0.778 -2.071,1.576 -2.791,2.668 0.59,-1.175 1.557,-2.115 2.496,-3.021 0.961,-0.899 1.977,-1.733 3.013,-2.539 2.075,-1.607 4.229,-3.11 6.417,-4.556 2.189,-1.446 4.414,-2.838 6.67,-4.185 1.323,-0.786 2.65,-1.556 4.001,-2.306 -5.236,0.045 -10.405,2.364 -15.991,5.423 -0.472,0.635 -0.999,1.121 -1.282,1.381 -6.837,6.269 -33.56,17.189 -48.119,11.957 -1.055,-0.379 -2.095,-0.804 -3.123,-1.261 -0.051,0.048 -0.092,0.094 -0.12,0.129 m 32.793,20.418 c 6.997,0.405 14.087,0.076 20.906,-1.656 3.514,-0.899 6.943,-2.194 10.12,-3.997 3.175,-1.797 6.081,-4.12 8.508,-6.915 -2.186,2.986 -4.927,5.587 -8.021,7.695 -3.094,2.114 -6.521,3.746 -10.074,4.977 -3.56,1.234 -7.249,2.077 -10.974,2.636 -1.403,0.211 -2.815,0.368 -4.227,0.502 3.221,1.134 6.585,1.642 9.956,1.642 8.853,0 17.74,-3.484 24.129,-8.21 0.845,-0.625 1.661,-1.372 2.452,-2.21 0.13,-0.868 0.499,-1.699 1.108,-2.389 1.767,-2.005 3.259,-4.023 4.531,-6.05 2.965,-5.924 5.179,-13.122 6.403,-19.913 0.262,-3.205 0.247,-6.375 0.102,-9.482 -0.076,-0.019 -0.153,-0.038 -0.229,-0.057 -1.846,1.243 -3.542,2.938 -5.078,4.765 -1.742,2.086 -3.293,4.38 -4.729,6.753 -1.432,2.375 -2.743,4.842 -3.939,7.368 -1.19,2.529 -2.282,5.112 -3.165,7.779 0.586,-2.748 1.397,-5.455 2.314,-8.126 0.923,-2.668 1.971,-5.302 3.166,-7.884 1.201,-2.579 2.533,-5.117 4.139,-7.537 1.004,-1.488 2.098,-2.951 3.381,-4.301 -0.084,-0.03 -0.166,-0.063 -0.251,-0.092 -4.346,3.342 -7.86,8.511 -11.744,14.233 -4.447,6.551 -9.223,13.578 -16.073,19.165 -5.511,4.964 -11.612,8.903 -17.373,9.961 -1.804,0.332 -3.634,0.548 -5.471,0.662 -0.027,0.16 -0.034,0.431 0.133,0.681 m 76.286,-31.877 c 0.217,-0.844 0.367,-1.741 0.462,-2.679 -0.444,-0.295 -0.88,-0.599 -1.3,-0.919 -1.981,-1.506 -3.751,-4.077 -3.997,-6.209 -4.167,0.033 -8.563,-0.206 -12.81,-0.92 0.45,11.264 -0.856,23.32 -10.387,35.186 1.195,-0.687 2.37,-1.41 3.514,-2.19 2.553,-1.757 4.938,-3.774 7.125,-6.001 2.18,-2.23 4.151,-4.69 5.797,-7.369 0.84,-1.332 1.543,-2.741 2.19,-4.183 0.594,-1.46 1.106,-2.964 1.391,-4.534 -0.133,1.589 -0.5,3.155 -0.96,4.693 -0.511,1.519 -1.09,3.026 -1.814,4.466 -1.416,2.895 -3.194,5.62 -5.228,8.147 -2.039,2.523 -4.322,4.868 -6.825,6.972 -1.446,1.207 -2.964,2.33 -4.527,3.393 14.418,-2.16 24.252,-15.757 27.369,-27.853 m 16.825,2.934 c -1.861,-0.267 -3.701,-0.617 -5.494,-1.064 -0.478,0.988 -1.065,1.93 -1.721,2.823 -0.912,1.209 -1.956,2.315 -3.054,3.365 -1.067,1.008 -2.208,1.933 -3.383,2.815 4.943,-1.509 9.699,-4.274 13.652,-7.939 m -14.768,6.488 c 1.276,-0.704 2.531,-1.462 3.722,-2.312 1.183,-0.855 2.329,-1.775 3.365,-2.817 0.738,-0.761 1.422,-1.578 2.017,-2.466 -2.109,-0.533 -4.149,-1.196 -6.07,-2.023 -1.248,3.559 -2.886,7.127 -5.068,10.661 0.686,-0.33 1.368,-0.681 2.034,-1.043 m 45.658,-11.834 c 0.664,-0.219 1.519,-0.514 2.522,-0.862 1.815,-0.627 4.077,-1.408 6.59,-2.214 3.424,-1.425 7.061,-2.824 11.375,-3.96 2.922,-0.77 5.774,-1.3 8.535,-1.636 -1.119,-0.203 -2.238,-0.393 -3.361,-0.57 -3.658,-0.573 -7.345,-1.01 -11.044,-1.279 -3.463,-0.246 -6.942,-0.346 -10.417,-0.198 -3.47,0.158 -6.949,0.544 -10.328,1.477 3.283,-1.225 6.76,-1.926 10.248,-2.393 3.494,-0.458 7.022,-0.666 10.549,-0.725 4.283,-0.062 8.567,0.089 12.846,0.426 -8.334,-3.981 -21.539,-7.572 -36.366,-4.345 -4.951,1.076 -9.088,2.486 -13.09,3.849 -5.089,1.734 -10.304,3.504 -17.14,4.554 l -6.638,-0.553 c 1.625,0.786 3.352,1.443 5.113,1.996 3.039,0.952 6.209,1.601 9.413,2.002 3.206,0.402 6.455,0.574 9.702,0.447 3.24,-0.142 6.504,-0.541 9.605,-1.625 -2.988,1.37 -6.256,2.09 -9.525,2.541 -3.28,0.437 -6.604,0.575 -9.929,0.47 -3.325,-0.104 -6.657,-0.462 -9.959,-1.165 -2.223,-0.48 -4.442,-1.102 -6.61,-1.988 0.405,0.561 0.93,1.141 1.582,1.637 13.119,9.972 40.51,6.023 46.327,4.114 m -15.022,11.354 c 13.804,8.995 40.839,3.074 46.502,0.749 1.167,-0.479 2.749,-1.181 4.582,-1.994 2.634,-1.169 5.778,-2.564 9.056,-3.908 4.363,-2.02 9.087,-3.809 13.856,-5.266 -0.313,-0.112 -0.63,-0.219 -0.952,-0.316 -1.381,-0.42 -2.837,-0.724 -4.314,-0.958 -2.959,-0.467 -6.008,-0.646 -9.06,-0.697 -3.053,-0.035 -6.124,0.066 -9.184,0.317 -1.53,0.124 -3.06,0.285 -4.582,0.497 -1.52,0.227 -3.047,0.454 -4.514,0.933 1.416,-0.624 2.928,-1.005 4.427,-1.384 1.505,-0.365 3.023,-0.679 4.549,-0.958 3.051,-0.559 6.133,-0.969 9.238,-1.243 2.484,-0.205 4.985,-0.322 7.511,-0.272 -0.875,-0.274 -1.808,-0.538 -2.813,-0.784 -5.074,-1.234 -15.436,-2.819 -27.857,0.451 -5.258,1.385 -9.356,3.13 -13.694,4.979 -5.809,2.475 -11.79,5.016 -20.539,6.492 l -0.31,0.027 c 2.004,0.442 4.045,0.779 6.101,1.027 3.737,0.446 7.528,0.609 11.321,0.512 3.791,-0.102 7.592,-0.455 11.332,-1.169 0.927,-0.207 1.863,-0.391 2.788,-0.618 l 1.376,-0.38 c 0.461,-0.125 0.922,-0.247 1.367,-0.417 l 1.351,-0.471 c 0.456,-0.146 0.875,-0.373 1.317,-0.555 0.895,-0.35 1.696,-0.868 2.534,-1.341 h 0.001 c -0.793,0.535 -1.564,1.126 -2.432,1.546 -0.429,0.22 -0.839,0.484 -1.285,0.668 l -1.324,0.584 c -0.439,0.207 -0.893,0.369 -1.347,0.532 l -1.364,0.495 c -0.916,0.305 -1.847,0.567 -2.773,0.852 -3.731,1.028 -7.559,1.696 -11.417,2.109 -3.86,0.408 -7.757,0.555 -11.665,0.403 -2.781,-0.113 -5.571,-0.377 -8.35,-0.856 0.18,0.143 0.366,0.283 0.567,0.414 m 35.443,15.373 c 9.862,2.951 25.151,4.503 41.982,-4.848 7.225,-4.014 11.536,-8.822 15.337,-13.063 2.013,-2.245 3.931,-4.38 6.095,-6.216 -1.398,0.118 -2.849,0.373 -4.275,0.681 -2.287,0.5 -4.568,1.162 -6.829,1.906 -2.26,0.747 -4.502,1.581 -6.715,2.494 -2.213,0.914 -4.403,1.897 -6.544,2.99 1.985,-1.357 4.043,-2.618 6.14,-3.815 2.098,-1.199 4.241,-2.325 6.431,-3.374 2.117,-1.011 4.278,-1.951 6.52,-2.764 -7.571,0.57 -19.755,3.093 -32.44,9.07 -11.005,5.185 -19.652,8.928 -32.931,11.248 2.572,1.019 5.27,1.784 8.026,2.32 3.538,0.686 7.172,1.006 10.817,1 3.647,-0.009 7.309,-0.339 10.915,-1.028 3.601,-0.699 7.164,-1.734 10.489,-3.372 -3.178,1.908 -6.69,3.257 -10.278,4.267 -3.597,1.002 -7.301,1.651 -11.044,1.97 -3.743,0.317 -7.534,0.302 -11.312,-0.11 -1.099,-0.12 -2.199,-0.28 -3.293,-0.472 0.971,0.444 1.954,0.83 2.909,1.116 m 57.973,5.05 c 16.775,-7.354 24.841,-21.351 31.133,-40.138 -1.16,0.561 -2.298,1.184 -3.412,1.865 -2.279,1.375 -4.405,3.038 -6.443,4.809 -2.032,1.782 -3.949,3.719 -5.737,5.778 -0.89,1.033 -1.762,2.087 -2.58,3.184 -0.824,1.091 -1.618,2.21 -2.311,3.396 0.558,-1.257 1.227,-2.466 1.929,-3.651 0.697,-1.193 1.453,-2.349 2.235,-3.491 1.569,-2.279 3.294,-4.463 5.174,-6.527 1.783,-1.938 3.683,-3.8 5.782,-5.458 -6.44,2.637 -12.2,8.747 -18.581,15.518 -8.482,9.005 -17.879,18.969 -31.466,24.16 4.958,0.301 9.976,-0.07 14.851,-1.209 3.834,-0.904 7.575,-2.298 11.018,-4.275 3.438,-1.973 6.575,-4.548 9.058,-7.719 -2.232,3.349 -5.206,6.211 -8.568,8.497 -3.368,2.293 -7.115,4.029 -11.017,5.269 -6.799,2.147 -14.047,2.844 -21.224,2.244 5.447,2.046 16.75,3.628 30.159,-2.252 m 74.405,-78.324 c -1.544,0.273 -3.084,0.553 -4.62,0.859 -3.894,0.774 -7.76,1.673 -11.565,2.792 -3.801,1.12 -7.547,2.456 -11.148,4.13 -3.598,1.677 -7.062,3.697 -10.171,6.221 2.907,-2.755 6.241,-5.064 9.749,-7.038 3.515,-1.975 7.212,-3.622 10.984,-5.056 3.774,-1.433 7.628,-2.647 11.51,-3.732 1.461,-0.409 2.926,-0.795 4.394,-1.173 -14.342,-2.185 -30.77,6.162 -36.121,11.034 -4.357,3.967 -21.974,12.993 -32.799,16.056 5.166,0.981 10.486,1.344 15.791,1.075 7.076,-0.367 14.169,-1.893 20.729,-4.864 -6.283,3.519 -13.337,5.7 -20.554,6.695 -2.881,0.394 -5.792,0.598 -8.714,0.627 0.085,0.013 0.166,0.029 0.252,0.042 7.059,1.148 25.095,2.623 40.031,-8.397 4.331,-3.196 7.134,-6.073 9.843,-8.856 3.388,-3.481 6.649,-6.821 12.409,-10.415 m -19.463,-4.948 c 1.792,-0.522 3.636,-0.969 5.511,-1.313 -0.372,-0.404 -0.753,-0.8 -1.156,-1.18 -1.163,-1.065 -2.436,-2.032 -3.784,-2.909 -1.348,-0.879 -2.772,-1.66 -4.228,-2.395 l -2.197,-1.101 c -0.723,-0.379 -1.481,-0.74 -2.097,-1.289 0.677,0.465 1.457,0.723 2.22,1.007 l 2.315,0.82 c 1.547,0.551 3.089,1.16 4.588,1.889 1.499,0.727 2.959,1.569 4.345,2.553 0.913,0.666 1.782,1.403 2.609,2.195 1.844,-0.237 3.706,-0.371 5.566,-0.371 1.211,0 2.421,0.062 3.625,0.18 -11.298,-12.864 -29.601,-16.926 -35.82,-17.364 2.974,8.345 7.099,15.864 18.503,19.278 m -33.921,-5.374 c 0.012,0.003 0.022,0.007 0.033,0.011 l -0.082,-0.174 c -0.008,0.005 -0.015,0.01 -0.024,0.015 z m -81.776,15.075 0.098,-0.241 c -0.167,0.008 -0.341,0.026 -0.506,0.03 0.129,0.069 0.27,0.14 0.408,0.211 m 37.154,-14.475 c -5.419,2.649 -10.695,5.126 -16.498,7.513 -6.612,3.189 -14.175,6.327 -20.182,6.7 2.625,1.128 5.462,1.847 8.351,2.273 3.008,0.439 6.081,0.568 9.151,0.45 3.072,-0.119 6.141,-0.51 9.158,-1.157 3.007,-0.663 6.016,-1.549 8.666,-3.187 -2.539,1.812 -5.524,2.913 -8.514,3.782 -3.009,0.855 -6.093,1.457 -9.218,1.784 -1.86,0.196 -3.736,0.289 -5.616,0.29 7.018,1.334 15.869,1.767 25.279,-0.36 5.626,-2.091 11.52,-5.107 15.79,-7.292 2.321,-1.187 4.154,-2.125 5.449,-2.674 4.015,-1.705 9.276,-3.649 15.109,-5.099 0.492,-0.244 0.985,-0.488 1.483,-0.735 0.986,-0.49 1.988,-0.988 3.009,-1.493 -1.654,-0.531 -3.337,-0.99 -5.046,-1.349 -2.934,-0.613 -5.939,-0.908 -8.952,-0.953 -3.014,-0.036 -6.043,0.209 -9.019,0.785 -2.969,0.579 -5.921,1.454 -8.572,2.983 2.546,-1.706 5.468,-2.793 8.435,-3.58 2.975,-0.786 6.042,-1.244 9.13,-1.414 1.263,-0.066 2.532,-0.077 3.801,-0.051 -12.01,-2.237 -24.636,0.759 -31.194,2.784 m 55.34,16.817 c 1.817,-1.223 3.665,-2.461 5.588,-3.691 2.095,-1.514 4.823,-3.143 7.971,-4.654 0.207,-0.108 0.406,-0.217 0.616,-0.324 -0.237,-0.125 -0.482,-0.233 -0.722,-0.35 -1.246,-0.079 -2.496,-0.138 -3.75,-0.153 -3.486,-0.057 -6.986,0.204 -10.472,0.621 -3.484,0.432 -6.957,1.07 -10.376,1.943 -0.852,0.223 -1.71,0.439 -2.551,0.703 l -1.27,0.38 -1.254,0.426 c -1.664,0.589 -3.33,1.208 -4.869,2.096 1.459,-1.019 3.079,-1.788 4.699,-2.523 l 1.226,-0.538 1.243,-0.493 c 0.826,-0.34 1.669,-0.631 2.51,-0.931 3.372,-1.179 6.829,-2.129 10.337,-2.876 2.251,-0.47 4.524,-0.864 6.814,-1.162 -14.222,-2.706 -30.561,3.131 -37.826,6.217 -1.174,0.497 -3.045,1.455 -5.211,2.564 -6.671,3.411 -16.04,8.202 -23.772,9.672 1.866,0.498 3.763,0.91 5.675,1.241 3.826,0.658 7.725,0.995 11.631,0.975 3.905,-0.02 7.823,-0.401 11.655,-1.257 3.827,-0.856 7.58,-2.187 11.019,-4.166 -3.274,2.239 -6.961,3.885 -10.783,5.055 -3.828,1.173 -7.803,1.874 -11.808,2.206 -4.006,0.33 -8.05,0.297 -12.074,-0.078 -1.171,-0.11 -2.34,-0.254 -3.507,-0.424 7.99,2.988 20.988,5.465 34.973,1.772 5.715,-2.018 12.427,-5.14 17.873,-8.042 2.162,-1.351 4.268,-2.765 6.415,-4.209 m -108.576,18.048 -0.083,0.211 c 0.12,-0.003 0.238,-0.003 0.357,-0.006 -0.09,-0.068 -0.179,-0.135 -0.274,-0.205 m -22.198,-52.156 c -2.608,0.531 -5.264,0.852 -7.938,0.992 -2.674,0.139 -5.365,0.105 -8.051,-0.1 -1.555,-0.129 -3.107,-0.32 -4.655,-0.556 7.413,4.67 15.257,6.242 23.431,6.272 0.255,-0.126 0.501,-0.256 0.761,-0.38 l 0.002,-0.001 c 0.371,-0.176 0.707,-0.271 1.01,-0.312 0.681,-2.778 1.518,-5.49 2.624,-8.106 -2.289,1 -4.72,1.689 -7.184,2.191 m -16.573,-2.051 c 0.319,0.07 0.636,0.145 0.956,0.209 2.53,0.492 5.099,0.828 7.687,0.995 2.588,0.165 5.197,0.158 7.799,-0.063 2.47,-0.211 4.941,-0.6 7.336,-1.331 1,-2.358 2.218,-4.637 3.733,-6.822 -10.019,3.574 -19.093,5.359 -25.561,6.627 -0.653,0.128 -1.307,0.257 -1.95,0.385 m -101.847,5.486 -0.536,0.242 -0.578,-0.114 c -0.01,-0.002 -0.018,-0.006 -0.027,-0.008 -0.003,1.396 -0.039,2.773 -0.131,4.121 5.026,-3.837 10.404,-7.248 15.08,-8.312 -1.489,-0.537 -3.724,-1.063 -6.494,-1.411 -2.081,2.297 -4.456,4.193 -7.314,5.482 m 46.762,10.724 c -6.945,1.778 -15.429,6.191 -21.067,9.127 -2.311,1.204 -4.137,2.155 -5.429,2.714 -3.532,1.532 -8.033,3.259 -13.043,4.669 1.719,0.224 3.468,0.362 5.214,0.44 3.928,0.168 7.896,0.06 11.852,-0.253 3.958,-0.312 7.91,-0.818 11.819,-1.563 1.955,-0.376 3.899,-0.812 5.814,-1.358 0.955,-0.278 1.907,-0.574 2.834,-0.936 0.927,-0.359 1.85,-0.754 2.676,-1.321 -0.782,0.629 -1.68,1.1 -2.585,1.532 -0.906,0.436 -1.84,0.808 -2.781,1.162 -1.885,0.696 -3.81,1.286 -5.75,1.816 -3.882,1.054 -7.829,1.872 -11.813,2.494 -3.983,0.625 -8.01,1.048 -12.081,1.186 -2.034,0.068 -4.082,0.058 -6.144,-0.078 -0.496,-0.033 -0.993,-0.073 -1.492,-0.122 14.733,7.458 35.46,2.042 44.04,-0.779 1.212,-0.398 3.157,-1.194 5.407,-2.116 6.441,-2.638 15.301,-6.265 22.805,-7.421 -0.054,-0.016 -0.107,-0.035 -0.161,-0.051 -3.141,-0.91 -6.365,-1.615 -9.625,-2.16 -3.259,-0.548 -6.557,-0.913 -9.869,-1.118 -3.311,-0.187 -6.647,-0.261 -9.951,0.214 3.251,-0.778 6.619,-1.016 9.963,-1.132 3.352,-0.103 6.715,-0.041 10.073,0.209 3.358,0.249 6.716,0.662 10.056,1.306 1.104,0.215 2.207,0.456 3.306,0.726 -6.262,-3.755 -19.091,-8.639 -34.068,-7.187 m 63.391,24.113 0.44,0.039 c -0.152,-0.063 -0.304,-0.13 -0.459,-0.192 -0.791,-0.279 -1.582,-0.567 -2.39,-0.822 -0.819,-0.231 -1.627,-0.498 -2.459,-0.703 -3.311,-0.863 -6.717,-1.491 -10.151,-1.908 -3.436,-0.411 -6.905,-0.623 -10.38,-0.598 -3.474,0.032 -6.961,0.29 -10.396,0.962 v 0 c 3.364,-0.971 6.847,-1.541 10.347,-1.88 3.505,-0.334 7.037,-0.429 10.57,-0.317 3.535,0.117 7.068,0.45 10.593,1.045 0.882,0.136 1.758,0.341 2.639,0.51 0.191,0.043 0.383,0.092 0.574,0.137 -7.004,-3.987 -18.567,-8.258 -32.035,-7.47 -7.012,1.204 -15.645,4.737 -21.418,7.101 -2.413,0.989 -4.316,1.768 -5.653,2.208 -2.337,0.768 -5.077,1.579 -8.082,2.312 -2.102,0.904 -4.285,1.781 -6.603,2.597 1.082,0.376 2.185,0.705 3.302,1.003 1.215,0.323 2.443,0.616 3.687,0.858 3.085,0.616 6.249,0.91 9.423,1.071 3.177,0.148 6.376,0.112 9.565,-0.137 0.795,-0.077 1.593,-0.14 2.388,-0.231 0.79,-0.113 1.592,-0.184 2.377,-0.331 l 1.184,-0.204 1.172,-0.259 c 0.778,-0.187 1.548,-0.412 2.273,-0.767 -0.098,0.062 -0.212,0.126 -0.343,0.191 -0.592,0.324 -1.225,0.577 -1.865,0.796 l -1.155,0.374 -1.17,0.318 c -0.779,0.225 -1.573,0.372 -2.361,0.563 -0.792,0.168 -1.588,0.308 -2.385,0.463 -3.191,0.557 -6.423,0.904 -9.676,1.063 -3.252,0.145 -6.531,0.154 -9.811,-0.178 -0.507,-0.049 -1.016,-0.107 -1.523,-0.17 13.448,5.27 30.603,2.223 38.697,0.253 1.521,-0.487 3.015,-0.995 4.525,-1.509 4.058,-1.383 8.258,-2.811 13.345,-3.928 4.514,-1.197 9.144,-2.13 13.214,-2.26 m 9.369,-22.774 c -1.558,1.379 -3.025,2.868 -4.382,4.461 -1.334,1.609 -2.525,3.335 -3.542,5.183 -0.895,1.708 -1.569,3.533 -2.021,5.443 2.985,1.61 5.429,3.293 7.173,4.818 0.718,-8.859 2.431,-15.942 3.681,-20.684 -0.305,0.256 -0.61,0.514 -0.909,0.779 m -10.019,15.049 c 0.176,-1.951 0.588,-3.898 1.254,-5.778 0.768,-2.039 1.744,-4.011 2.891,-5.885 1.168,-1.858 2.477,-3.631 3.9,-5.314 0.433,-0.51 0.879,-1.01 1.334,-1.504 -7.6,4.604 -11.789,10.062 -14.215,16.176 1.728,0.73 3.35,1.507 4.836,2.305 m -95.546,33.154 0.226,0.543 -0.131,0.575 c -0.026,0.113 -0.061,0.222 -0.099,0.328 7.998,0.217 15.387,1.128 21.117,5.826 5.31,-2.77 10.551,-4.859 16.006,-4.859 1.132,0 2.274,0.089 3.426,0.282 l 0.581,0.096 0.417,0.417 c 0.271,0.27 0.466,0.575 0.61,0.894 1.792,-2.337 3.667,-4.485 5.724,-6.311 -1.297,-0.676 -2.527,-1.441 -3.666,-2.306 -2.203,-1.675 -4.146,-4.669 -4.016,-6.909 -8.206,-0.465 -16.499,-2.531 -23.182,-7.597 -1.587,-1.202 -2.281,-2.44 -2.063,-3.679 0.006,-0.032 0.016,-0.068 0.024,-0.103 -9.736,0.877 -20.248,-0.106 -28.737,-5.621 -0.573,-0.372 -1.034,-0.756 -1.397,-1.15 1.687,4.138 2.586,8.333 2.003,12.75 l -0.077,0.584 -0.402,0.43 c -0.486,0.519 -1.13,0.853 -1.92,1.011 6.813,3.853 12.749,8.074 15.556,14.799 M 224.05,444.107 c 1.905,-0.26 3.822,-0.713 5.726,-1.259 1.906,-0.548 3.802,-1.195 5.697,-1.862 1.898,-0.663 3.796,-1.365 5.735,-1.912 -1.832,0.834 -3.584,1.808 -5.364,2.754 -1.777,0.949 -3.57,1.887 -5.425,2.742 -1.854,0.855 -3.767,1.634 -5.784,2.232 -1.155,0.341 -2.347,0.62 -3.577,0.802 0.631,1.073 1.24,2.144 1.814,3.213 9.239,-1.317 17.693,-4.52 22.37,-6.547 1.17,-0.508 3.035,-1.478 5.193,-2.603 6.613,-3.444 15.89,-8.272 23.59,-9.824 -1.131,-0.26 -2.272,-0.5 -3.422,-0.697 -3.256,-0.559 -6.575,-0.854 -9.905,-0.948 -3.33,-0.088 -6.677,0.048 -9.99,0.49 -1.654,0.229 -3.305,0.527 -4.914,0.981 -1.604,0.461 -3.199,1.036 -4.586,2.005 1.294,-1.093 2.86,-1.828 4.442,-2.441 1.589,-0.609 3.233,-1.064 4.892,-1.449 3.322,-0.756 6.711,-1.205 10.12,-1.425 3.407,-0.213 6.841,-0.223 10.276,0.049 0.762,0.06 1.524,0.134 2.287,0.222 -8.562,-3.334 -23.666,-6.257 -39.517,-0.747 -3.088,1.877 -6.287,4.283 -9.247,6.682 -0.692,3.258 -1.894,6.295 -3.914,9.028 l -0.351,0.473 -0.56,0.183 c -0.028,0.009 -0.055,0.012 -0.082,0.021 1.453,0.115 2.972,0.044 4.496,-0.163 m 65.006,-35.364 c 0.3,-0.743 0.997,-1.534 2.01,-2.354 -7.705,1.578 -15.902,1.944 -25.134,-0.922 l -0.579,-0.18 -0.359,-0.489 c -0.401,-0.546 -0.765,-1.435 -0.462,-2.703 -6.913,4.901 -13.687,8.951 -21.49,8.518 l -0.587,-0.032 -0.46,-0.369 c -0.563,-0.452 -0.885,-1.043 -1.06,-1.665 -1.415,2.75 -2.885,5.369 -4.536,7.723 3.511,0.636 6.203,1.578 7.641,2.565 1.343,0.925 1.641,1.908 1.635,2.61 2.298,-0.248 4.514,-0.358 6.62,-0.358 4.677,0 8.826,0.523 12.192,1.183 9.076,1.775 16.155,5.29 18.455,7.845 0.651,0.724 0.933,1.381 1.02,1.938 4.841,0.41 9.08,1.336 12.474,2.328 8.877,2.597 15.605,6.744 17.663,9.498 0.438,0.586 0.67,1.115 0.774,1.582 4.957,0.66 9.289,1.845 12.785,3.082 2.475,-6.284 6.674,-12.037 14.107,-16.939 -7.831,-0.789 -15.468,-3.25 -22.675,-8.692 l -0.215,-0.163 -0.159,-0.217 c -0.859,-1.17 -0.649,-2.21 -0.448,-2.724 0.102,-0.26 0.239,-0.496 0.412,-0.715 -9.024,0.261 -18.485,-1.342 -28.7,-6.927 l -0.358,-0.197 -0.242,-0.33 c -0.613,-0.834 -0.731,-1.889 -0.324,-2.896 m 35.254,56.993 c -4.952,1.077 -9.09,2.487 -13.092,3.849 -6.29,2.144 -12.763,4.347 -22.266,5.17 1.12,0.564 2.282,1.068 3.471,1.512 2.999,1.119 6.158,1.906 9.368,2.435 3.212,0.525 6.484,0.794 9.763,0.772 3.274,-0.035 6.574,-0.324 9.765,-1.207 -3.097,1.176 -6.404,1.782 -9.715,2.125 -3.32,0.331 -6.676,0.369 -10.026,0.137 -3.35,-0.238 -6.703,-0.744 -10.002,-1.636 -2.024,-0.553 -4.035,-1.258 -5.977,-2.181 0.345,0.415 0.755,0.826 1.233,1.189 12.77,9.707 40.319,5.611 46.455,4.078 1.237,-0.31 3.234,-0.963 5.547,-1.72 3.227,-1.055 7.043,-2.303 10.984,-3.375 1.896,-0.556 3.889,-1.085 6.049,-1.554 2.051,-0.447 4.073,-0.768 6.061,-0.986 -0.533,-0.181 -1.068,-0.36 -1.608,-0.525 -0.693,-0.214 -1.39,-0.414 -2.093,-0.603 -2.746,-0.736 -5.555,-1.298 -8.394,-1.695 -2.839,-0.396 -5.711,-0.63 -8.591,-0.645 -2.876,-0.005 -5.773,0.184 -8.601,0.857 2.742,-0.968 5.648,-1.473 8.556,-1.775 2.914,-0.294 5.854,-0.366 8.792,-0.27 2.941,0.1 5.882,0.369 8.812,0.83 1.467,0.233 2.931,0.513 4.389,0.855 -8.027,-4.42 -22.46,-9.21 -38.88,-5.637 m 40.044,-0.088 c -0.437,0.082 -1.329,0.249 -2.165,0.01 -0.207,0.279 -0.419,0.55 -0.63,0.823 5.787,2.706 9.747,5.758 11.127,7.681 15.246,1.125 27.056,7.851 31.238,11.941 12.639,0.396 22.126,4.668 25.139,7.93 0.211,0.229 0.389,0.452 0.541,0.669 2.91,-0.737 5.792,-1.339 8.57,-1.779 2.84,-0.449 5.994,-0.808 8.805,-0.808 3.089,0 5.761,0.438 7.152,1.667 6.897,-6.905 13.62,-12.094 22.18,-12.094 0.608,0 1.228,0.026 1.857,0.08 l 1.068,0.092 c 0.19,-0.727 0.365,-1.459 0.531,-2.195 -0.115,-0.125 -0.214,-0.249 -0.3,-0.372 -15.748,3.562 -31.142,0.024 -36.172,-3.169 -1.314,-0.833 -2.065,-1.738 -2.246,-2.699 -6.622,0.457 -12.454,-0.219 -16.908,-1.124 -9.065,-1.842 -16.117,-5.408 -18.399,-7.982 -0.724,-0.817 -0.985,-1.547 -1.027,-2.146 -3.325,-0.131 -6.315,-0.496 -8.851,-0.94 -6.884,-1.21 -12.492,-3.343 -15.727,-5.331 -4.405,4.913 -9.76,8.618 -15.783,9.746 m 26.599,-25.078 c -0.324,0.107 -0.91,0.3 -1.557,0.332 -1.071,2.596 -2.367,5.186 -3.867,7.666 2.942,-0.562 5.945,-1.364 8.973,-2.464 11.598,-4.215 20.495,-8.631 30.799,-13.743 0.192,-0.096 0.393,-0.195 0.588,-0.292 -0.604,-0.016 -1.213,0.007 -1.823,0.016 -2.714,0.078 -5.453,0.338 -8.175,0.721 -2.727,0.382 -5.435,0.923 -8.1,1.63 -2.654,0.731 -5.31,1.581 -7.686,3.04 2.204,-1.716 4.801,-2.881 7.398,-3.913 2.616,-1.013 5.299,-1.865 8.024,-2.56 2.727,-0.695 5.491,-1.272 8.311,-1.667 0.347,-0.044 0.691,-0.093 1.038,-0.137 -5.325,-2.066 -11.056,-2.761 -16.532,-2.698 -5.548,6.86 -12.28,12.374 -17.391,14.069 m 65.55,-30.388 c -7.827,0.907 -15.813,0.885 -22.638,-1.776 l -1.115,-0.435 c -5.12,5.143 -9.979,9.953 -15.317,12.035 -1.398,0.545 -2.948,0.282 -4.082,-0.651 -0.716,1.201 -1.487,2.386 -2.299,3.548 6.579,0.233 13.284,1.55 19.197,4.719 0.356,0.191 0.989,0.377 1.497,0.526 1.232,0.362 2.627,0.773 2.756,2.276 0.038,0.446 -0.054,1.212 -0.871,1.842 2.776,-0.338 5.682,-0.544 8.635,-0.544 7.268,0 14.815,1.24 21.384,4.761 0.356,0.19 0.989,0.377 1.497,0.526 1.232,0.362 2.627,0.773 2.757,2.276 0.018,0.211 0.005,0.497 -0.097,0.805 1.878,-0.186 3.771,-0.298 5.666,-0.298 4.763,0 9.525,0.651 14.006,2.267 -6.297,-4.958 -9.115,-11.832 -11.388,-18.655 l -0.026,-0.08 c -0.019,-0.069 -0.027,-0.137 -0.039,-0.205 -7.275,-2.247 -14.528,-5.827 -19.523,-12.937 m 24.717,107.295 c 3.224,-3.314 5.886,-7.029 7.938,-10.976 2.674,-6.027 5.08,-13.98 4.619,-23.317 -4.483,-0.058 -8.162,-0.711 -10.682,-1.607 -5.083,21.016 -19.683,37.651 -26.147,43.847 3.358,-1.396 6.615,-3.058 9.67,-5.049 1.572,-1.012 3.085,-2.119 4.528,-3.312 1.454,-1.183 2.826,-2.466 4.106,-3.84 2.585,-2.725 4.745,-5.857 6.429,-9.245 -1.497,3.472 -3.501,6.749 -5.971,9.653 -1.222,1.461 -2.546,2.842 -3.96,4.126 -1.404,1.294 -2.886,2.508 -4.437,3.627 -3.088,2.26 -6.417,4.188 -9.879,5.835 -1.732,0.823 -3.499,1.573 -5.297,2.251 -0.872,0.325 -1.74,0.633 -2.619,0.92 -0.211,0.109 -0.423,0.22 -0.637,0.333 11.694,0.716 23.384,-4.039 32.339,-13.246 m 31.089,-37.138 c -5.355,1.674 -10.396,2.504 -14.853,2.759 0.768,15.986 -6.213,28 -9.661,33.926 -0.084,0.146 -0.172,0.297 -0.259,0.446 1.547,-0.984 2.978,-2.189 4.268,-3.544 2.077,-2.175 3.814,-4.709 5.294,-7.389 1.479,-2.686 2.7,-5.53 3.733,-8.443 1.032,-2.916 1.872,-5.906 2.55,-8.937 -0.478,3.069 -1.119,6.119 -1.966,9.122 -0.846,3.002 -1.89,5.962 -3.225,8.813 -1.291,2.752 -2.854,5.412 -4.817,7.813 13.312,-7.7 18.682,-24.001 18.936,-34.566 m 5.452,-1.612 c 0.116,0.037 0.246,0.076 0.37,0.114 v -0.217 c -0.123,0.033 -0.247,0.071 -0.37,0.103 m 4.305,5.283 c -0.023,0.164 0.052,0.609 0.45,0.94 l 1.096,-1.315 c -1.294,-0.151 -2.503,-0.342 -3.607,-0.568 -1.596,-0.326 -2.975,-0.719 -4.086,-1.152 -0.014,0.203 -0.028,0.407 -0.044,0.613 l 1.484,0.131 c -0.002,0.024 -0.006,0.046 -0.007,0.07 -0.325,3.53 -1.481,6.178 -2.329,8.114 -0.29,0.663 -0.669,1.526 -0.788,2.015 2.209,-1.239 7.583,-7.211 7.831,-8.848 m 124.465,-42.113 c -4.083,4.724 -6.217,8.916 -8.279,12.972 -2.579,5.069 -5.015,9.857 -10.76,15.205 -9.667,9 -20.496,12.678 -27.878,14.18 -8.527,1.735 -15.943,1.235 -18.863,-0.155 -1.443,-0.685 -1.843,-1.601 -1.919,-2.262 -3.541,1.063 -6.821,1.716 -9.62,2.102 -9.164,1.263 -16.997,0.231 -20.003,-1.44 -0.641,-0.357 -1.069,-0.747 -1.355,-1.13 -5.261,1.564 -10.098,2.249 -13.994,2.5 -2.894,0.186 -5.64,0.157 -8.136,-0.029 0.05,0.881 -0.288,1.948 -1.048,3.207 -1.171,1.94 -8.181,10.903 -11.614,9.489 -0.128,-0.053 -0.25,-0.11 -0.369,-0.168 -4.22,11.111 -12.757,22.207 -27.166,25.535 -1.477,0.342 -2.243,-0.34 -2.567,-0.776 -0.026,-0.038 -0.048,-0.076 -0.073,-0.114 -10.149,9.9 -23.346,14.695 -36.425,13.188 -0.847,-0.098 -3.09,-0.357 -3.433,-2.261 -0.038,-0.216 -0.041,-0.421 -0.025,-0.621 -15.608,6.024 -28.29,2.893 -32.987,0.247 -2.038,-1.147 -3.163,-2.436 -3.348,-3.833 l -0.014,-0.105 c -8.538,0.823 -16.029,-0.45 -21.789,-2.173 -2.747,-0.821 -6.116,-2.497 -9.247,-4.597 -5.24,-3.518 -5.135,-4.82 -5.08,-5.519 0.009,-0.105 0.029,-0.205 0.051,-0.303 -7.98,-0.081 -16.086,-1.464 -22.121,-5.396 -2.6,-1.694 -4.998,-5.064 -4.428,-7.384 0.092,-0.376 0.26,-0.706 0.48,-0.986 -1.73,-0.016 -3.492,-0.082 -5.257,-0.213 -5.58,6.012 -13.262,10.424 -20.9,11.862 -1.278,0.24 -2.412,0.124 -3.293,-0.314 -1.488,2.247 -3.155,4.345 -4.982,6.231 -5.935,6.133 -13.126,9.755 -20.795,10.474 -1.442,0.136 -2.822,-0.409 -3.786,-1.429 -0.49,0.442 -0.987,0.864 -1.5,1.243 -6.326,4.679 -13.974,7.758 -21.533,8.669 -8.475,1.021 -16.339,-0.698 -22.746,-4.972 -1.33,-0.888 -2.072,-2.365 -2.046,-3.926 -4.822,-0.08 -9.604,-0.894 -13.999,-2.425 -8.06,-2.807 -14.369,-7.81 -18.245,-14.466 -0.859,-1.477 -0.825,-3.266 0.044,-4.71 -4.855,-2.644 -9.234,-6.134 -12.704,-10.181 -5.555,-6.479 -8.493,-13.976 -8.497,-21.678 0,-0.722 0.165,-1.412 0.468,-2.029 -2.788,-3.907 -4.973,-8.243 -6.402,-12.707 -4.743,0.732 -9.536,0.703 -14.174,-0.476 -0.716,-0.182 -2.201,-0.562 -2.968,-1.618 -8.361,6.343 -19.12,12.302 -29.059,12.05 -2.489,-0.063 -5.433,-1.115 -6.877,-2.703 -7.93,5.815 -17.787,11.148 -27.067,10.923 -2.767,-0.069 -6.093,-1.361 -7.298,-3.253 -6.926,4.42 -14.86,7.597 -23.247,7.398 -1.991,-0.047 -3.278,-0.646 -3.825,-1.778 -0.015,-0.028 -0.027,-0.065 -0.041,-0.096 -7.383,6.406 -16.485,11.756 -26.597,12.25 -1.989,0.099 -3.316,-0.406 -3.945,-1.496 -0.302,-0.525 -0.671,-1.623 0.262,-3.069 3.43,-5.315 5.835,-10.449 8.16,-15.415 3.219,-6.874 6.258,-13.366 11.706,-20.083 8.845,-10.904 19.701,-16.378 27.249,-19.051 6.134,-2.172 11.853,-3.099 15.848,-3.099 1.683,0 3.061,0.165 4.033,0.47 0.7,0.221 1.2,0.515 1.557,0.833 4.836,-2.594 9.434,-4.241 13.2,-5.274 5.185,-1.422 10.027,-2.017 13.8,-2.017 2.718,0 4.881,0.309 6.219,0.838 0.884,0.351 1.424,0.8 1.752,1.251 9.142,-4.445 17.985,-5.932 23.671,-5.932 2.214,0 3.943,0.228 5.031,0.591 7.009,-4.308 14.159,-6.722 20.172,-7.893 2.457,-8.21 7.601,-15.592 14.727,-20.11 2.321,-7.143 6.439,-13.791 11.68,-18.812 6.163,-5.905 13.485,-9.253 21.175,-9.683 0.088,-0.005 0.175,-0.007 0.262,-0.007 1.804,0 3.434,1.039 4.204,2.703 0.014,0.032 0.021,0.065 0.036,0.097 4.503,-3.191 9.554,-5.585 14.706,-6.922 3.179,-0.823 6.323,-1.233 9.382,-1.233 4.892,0 9.566,1.047 13.824,3.127 1.244,0.609 2.094,1.489 2.466,2.479 2.504,-0.408 5.04,-0.621 7.561,-0.621 3.344,0 6.659,0.361 9.825,1.088 6.309,1.449 11.753,4.266 16.014,8.244 0.873,-0.06 1.751,-0.1 2.641,-0.1 11.704,0 24.554,5.138 31.241,14.712 0.227,0.061 0.453,0.119 0.68,0.179 l -0.172,0.562 c 0.131,0.204 0.254,0.413 0.381,0.619 8.074,0.481 16.528,3.169 21.395,11.094 2.121,-1.285 4.466,-2.502 7.094,-3.637 l 0.003,-0.001 c 0.561,-0.242 1.046,-0.336 1.463,-0.336 0.711,0 1.225,0.275 1.57,0.569 0.08,0.068 0.152,0.14 0.221,0.214 4.337,-6.983 11.442,-13.233 23.436,-18.1 0.544,-0.252 1.008,-0.35 1.403,-0.35 0.676,0 1.143,0.291 1.452,0.602 0.132,0.134 0.237,0.269 0.324,0.407 6.5,-7.185 16.118,-10.725 29.21,-10.725 2.555,0 5.244,0.135 8.067,0.404 0.409,-0.078 0.985,-0.132 1.505,0.066 0.399,-0.138 0.797,-0.275 1.209,-0.397 3.298,-0.987 6.579,-1.403 9.766,-1.403 11.204,0 21.264,5.145 26.966,8.777 1.517,0.965 2.208,2.712 1.764,4.451 -0.019,0.07 -0.048,0.134 -0.07,0.201 19.139,2.714 28.833,18.03 31.395,26.506 0.376,1.246 0.679,2.511 0.21,3.424 0.637,0.431 1.275,0.877 1.913,1.346 13.374,9.845 13.107,23.547 10.926,30.435 0.137,0.066 0.261,0.136 0.374,0.209 7.391,-3.575 16.456,-6.778 24.891,-6.778 2.186,0 4.331,0.215 6.391,0.695 2.582,0.601 4.338,1.214 5.539,1.79 0.302,-0.007 0.603,-0.018 0.909,-0.018 l -0.03,0.491 c 0.711,0.431 1.128,0.831 1.372,1.175 5.416,-2.098 11.205,-3.496 17.022,-3.496 2.51,0 5.03,0.262 7.524,0.838 1.94,0.448 3.079,1.294 3.388,2.514 0.016,0.069 0.033,0.148 0.045,0.233 5.457,-2.898 11.849,-5.009 18.778,-5.009 1.704,0 3.439,0.126 5.2,0.401 1.968,0.307 3.166,1.068 3.561,2.262 0.192,0.576 0.332,1.725 -0.875,2.953 -0.407,0.413 -0.791,0.822 -1.166,1.229 5.607,-3.601 12.471,-6.377 20.136,-6.377 0.947,0 1.905,0.042 2.875,0.131 1.865,0.17 3.036,0.813 3.479,1.91 0.213,0.529 0.413,1.599 -0.647,2.825"
       style="fill:#000000;fill-opacity:1;fill-rule:nonzero;stroke:none"
       id="path1142"
       inkscape:connector-curvature="0" /></g></svg>
